<svg xmlns="http://www.w3.org/2000/svg" width="158" height="50" viewBox="0 0 158 50">
  <g id="app-store" transform="translate(0 0.336)">
    <g id="Rectangle_13838" data-name="Rectangle 13838" transform="translate(0 -0.336)" fill="rgba(255,255,255,0)" stroke="#000" stroke-width="1">
      <rect width="158" height="50" rx="10" stroke="none"/>
      <rect x="0.5" y="0.5" width="157" height="49" rx="9.5" fill="none"/>
    </g>
    <g id="Group_117663" data-name="Group 117663" transform="translate(17.629 10.001)">
      <path id="Path_139307" data-name="Path 139307" d="M745.124,220.2a6.2,6.2,0,0,1,2.955-5.2,6.355,6.355,0,0,0-5-2.7c-2.1-.222-4.147,1.259-5.22,1.259-1.094,0-2.745-1.238-4.525-1.2a6.664,6.664,0,0,0-5.608,3.419c-2.425,4.2-.616,10.366,1.707,13.758,1.162,1.663,2.52,3.517,4.3,3.452,1.739-.071,2.389-1.107,4.487-1.107,2.079,0,2.69,1.107,4.5,1.066,1.866-.029,3.042-1.669,4.163-3.346a13.723,13.723,0,0,0,1.9-3.876,6,6,0,0,1-3.66-5.514ZM741.7,210.06a6.1,6.1,0,0,0,1.4-4.375,6.219,6.219,0,0,0-4.022,2.08,5.809,5.809,0,0,0-1.434,4.213,5.138,5.138,0,0,0,4.056-1.918Z" transform="translate(-726.575 -205.685)"/>
      <g id="Group_117663-2" data-name="Group 117663" transform="translate(38.096 0.019)">
        <path id="Path_3150" data-name="Path 3150" d="M1022.49,236.859h-2.459l-1.347-4.182H1014l-1.283,4.182h-2.394l4.639-14.238h2.865Zm-4.212-5.937-1.214-3.718q-.193-.57-.726-2.682h-.043q-.214.908-.685,2.682l-1.2,3.718Zm16.12.677a5.771,5.771,0,0,1-1.439,4.14,4.247,4.247,0,0,1-3.2,1.353,3.219,3.219,0,0,1-2.966-1.456v5.387h-2.309V229.967q0-1.645-.086-3.375h2.031l.128,1.627h.043a4.136,4.136,0,0,1,6.576-.4,5.63,5.63,0,0,1,1.228,3.783Zm-2.352.084a4.191,4.191,0,0,0-.685-2.472,2.373,2.373,0,0,0-2.009-1.014,2.419,2.419,0,0,0-1.549.56,2.6,2.6,0,0,0-.911,1.469,2.963,2.963,0,0,0-.107.694v1.713a2.727,2.727,0,0,0,.7,1.892,2.32,2.32,0,0,0,1.806.771,2.376,2.376,0,0,0,2.031-.993,4.336,4.336,0,0,0,.733-2.62Zm14.3-.084a5.77,5.77,0,0,1-1.44,4.14,4.249,4.249,0,0,1-3.2,1.353,3.219,3.219,0,0,1-2.966-1.456v5.387h-2.309V229.967q0-1.645-.086-3.375h2.03l.128,1.627h.043a4.137,4.137,0,0,1,6.576-.4,5.639,5.639,0,0,1,1.228,3.783Zm-2.353.084a4.2,4.2,0,0,0-.686-2.472,2.37,2.37,0,0,0-2.007-1.014,2.429,2.429,0,0,0-1.552.56,2.59,2.59,0,0,0-.91,1.469,3.01,3.01,0,0,0-.108.694v1.713a2.735,2.735,0,0,0,.694,1.892,2.325,2.325,0,0,0,1.808.771,2.372,2.372,0,0,0,2.03-.993,4.331,4.331,0,0,0,.727-2.62Zm15.713,1.182a3.779,3.779,0,0,1-1.281,2.958,5.724,5.724,0,0,1-3.925,1.246,6.917,6.917,0,0,1-3.731-.887l.534-1.9a6.481,6.481,0,0,0,3.339.888,3.172,3.172,0,0,0,2.03-.581,1.891,1.891,0,0,0,.729-1.551,1.977,1.977,0,0,0-.6-1.458,5.574,5.574,0,0,0-1.988-1.1q-3.785-1.4-3.785-4.079a3.583,3.583,0,0,1,1.336-2.873,5.325,5.325,0,0,1,3.541-1.12,7.061,7.061,0,0,1,3.271.677l-.58,1.859a5.778,5.778,0,0,0-2.769-.655,2.839,2.839,0,0,0-1.91.592,1.685,1.685,0,0,0-.579,1.29,1.734,1.734,0,0,0,.663,1.394,7.507,7.507,0,0,0,2.094,1.1,7.109,7.109,0,0,1,2.731,1.731,3.582,3.582,0,0,1,.88,2.469Zm7.651-4.561h-2.544v4.985q0,1.9,1.347,1.9a4.1,4.1,0,0,0,1.026-.106l.064,1.732a5.288,5.288,0,0,1-1.795.252,2.785,2.785,0,0,1-2.139-.825,4.01,4.01,0,0,1-.77-2.768V228.3h-1.517v-1.712h1.517v-1.88l2.267-.676v2.556h2.544Zm11.457,3.337a5.592,5.592,0,0,1-1.369,3.887,4.908,4.908,0,0,1-3.8,1.563,4.681,4.681,0,0,1-3.642-1.5,5.421,5.421,0,0,1-1.358-3.781,5.546,5.546,0,0,1,1.4-3.907,4.885,4.885,0,0,1,3.775-1.522,4.776,4.776,0,0,1,3.676,1.5,5.351,5.351,0,0,1,1.326,3.758Zm-2.393.052a4.552,4.552,0,0,0-.618-2.422,2.289,2.289,0,0,0-2.075-1.223,2.322,2.322,0,0,0-2.116,1.223,4.629,4.629,0,0,0-.619,2.465,4.541,4.541,0,0,0,.619,2.424,2.38,2.38,0,0,0,4.172-.021,4.571,4.571,0,0,0,.637-2.446Zm9.9-3.1a4.07,4.07,0,0,0-.727-.063,2.188,2.188,0,0,0-1.882.909,3.4,3.4,0,0,0-.577,2.028v5.387h-2.309V229.82q0-1.617-.067-3.232h2.011l.084,1.964h.064a3.524,3.524,0,0,1,1.154-1.627,2.812,2.812,0,0,1,1.668-.55,3.756,3.756,0,0,1,.577.042Zm10.319,2.642a5.283,5.283,0,0,1-.084,1.035h-6.925a2.961,2.961,0,0,0,1,2.326,3.467,3.467,0,0,0,2.265.717,7.747,7.747,0,0,0,2.8-.485l.361,1.582a8.754,8.754,0,0,1-3.483.634,5.084,5.084,0,0,1-3.8-1.4,5.153,5.153,0,0,1-1.379-3.77,5.834,5.834,0,0,1,1.284-3.864,4.446,4.446,0,0,1,3.633-1.647,3.888,3.888,0,0,1,3.4,1.647,5.494,5.494,0,0,1,.915,3.229Zm-2.2-.592a3.062,3.062,0,0,0-.448-1.754,2.023,2.023,0,0,0-1.838-.952,2.2,2.2,0,0,0-1.837.929,3.389,3.389,0,0,0-.683,1.774Z" transform="translate(-1010.326 -209.824)"/>
        <path id="Path_3338" data-name="Path 3338" d="M-41.665-4.848a.156.156,0,0,1,.051-.12.175.175,0,0,1,.123-.047h.573a.153.153,0,0,1,.112.047.162.162,0,0,1,.047.12v.566a.153.153,0,0,1-.047.112.162.162,0,0,1-.12.047h-.566a.171.171,0,0,1-.127-.047.153.153,0,0,1-.047-.112Zm-.689,2.117q.138,0,.123.138-.015.16-.022.341t-.007.283a4.48,4.48,0,0,0,.054.732,1.311,1.311,0,0,0,.218.555,1.034,1.034,0,0,0,.464.352,2.1,2.1,0,0,0,.787.123q.138,0,.257-.007t.286-.029q.007-.355.007-.624V-3.55a.128.128,0,0,1,.044-.1.146.146,0,0,1,.1-.04h.631a.13.13,0,0,1,.1.04.14.14,0,0,1,.036.1V-1.5h.645v.93h-.645v.511q0,.272-.015.475,0,.123-.152.16a4,4,0,0,1-.642.109q-.33.029-.671.029A2.583,2.583,0,0,1-42.56.17a2.26,2.26,0,0,1-.584-1.726q0-.073.007-.2t.018-.279q.011-.149.029-.294t.04-.254a.236.236,0,0,1,.044-.112A.143.143,0,0,1-42.9-2.73Zm3.437,1.32q0-.036.08-.062a.524.524,0,0,1,.16-.025h.218a1.063,1.063,0,0,0,.116-.007.569.569,0,0,0,.127-.029.344.344,0,0,0,.109-.062.186.186,0,0,0,.062-.105.581.581,0,0,0,.022-.167v-.609a1.556,1.556,0,0,1,.442-1.2,1.681,1.681,0,0,1,1.189-.41,1.631,1.631,0,0,1,1.164.4,1.566,1.566,0,0,1,.424,1.2v.428a1.578,1.578,0,0,1-.417,1.2,1.666,1.666,0,0,1-1.186.392,2.8,2.8,0,0,1-.714-.091.97.97,0,0,1-.519-.3.737.737,0,0,1-.381.228,2.143,2.143,0,0,1-.54.062h-.116a.6.6,0,0,1-.16-.022q-.08-.022-.08-.065Zm1.806-.7a2.237,2.237,0,0,0,.022.318.514.514,0,0,0,.232.365.914.914,0,0,0,.45.1.675.675,0,0,0,.529-.181.97.97,0,0,0,.16-.636v-.267a1.008,1.008,0,0,0-.16-.632.641.641,0,0,0-.529-.2.657.657,0,0,0-.537.2.978.978,0,0,0-.167.629Zm4.917-.2a1.754,1.754,0,0,1,.5-1.331,2.026,2.026,0,0,1,1.454-.475q.283,0,.577.029a2.5,2.5,0,0,1,.46.08.194.194,0,0,1,.1.051.144.144,0,0,1,.022.087v1.987a.356.356,0,0,0,.109.312.644.644,0,0,0,.348.073h.2V-.57h-.334a1.7,1.7,0,0,1-.616-.094.7.7,0,0,1-.363-.312.931.931,0,0,1-.388.221,1.652,1.652,0,0,1-.5.076h-.094a1.92,1.92,0,0,1-.573-.083,1.227,1.227,0,0,1-.468-.265,1.264,1.264,0,0,1-.315-.464,1.773,1.773,0,0,1-.116-.674Zm.914-.029a.863.863,0,0,0,.16.587.638.638,0,0,0,.493.174h.109a.772.772,0,0,0,.384-.08A.265.265,0,0,0-30-1.9V-3.26a1.459,1.459,0,0,0-.163-.011h-.185a1.042,1.042,0,0,0-.689.207.772.772,0,0,0-.247.627Zm2.56.928q0-.036.08-.062a.524.524,0,0,1,.16-.025h.334q.065,0,.138-.007a.474.474,0,0,0,.134-.033.293.293,0,0,0,.105-.073.191.191,0,0,0,.044-.134v-1.8a.133.133,0,0,1,.04-.1.142.142,0,0,1,.1-.04h.631a.133.133,0,0,1,.1.04.133.133,0,0,1,.04.1v1.929a.167.167,0,0,0,.08.062.637.637,0,0,0,.131.04.985.985,0,0,0,.141.018h.294V-.57h-.087a3.392,3.392,0,0,1-.558-.047,1,1,0,0,1-.471-.2A1,1,0,0,1-27.5-.7a1.763,1.763,0,0,1-.257.076,2.054,2.054,0,0,1-.268.04q-.134.011-.25.011h-.2a.6.6,0,0,1-.16-.022q-.08-.022-.08-.065Zm.254,1.639a.156.156,0,0,1,.051-.12A.175.175,0,0,1-28.292.06h.5a.188.188,0,0,1,.127.047.151.151,0,0,1,.054.12v.58a.135.135,0,0,1-.058.1.192.192,0,0,1-.123.047h-.5a.175.175,0,0,1-.123-.047.141.141,0,0,1-.051-.105Zm1.342,0a.151.151,0,0,1,.054-.12A.179.179,0,0,1-26.95.06h.508a.162.162,0,0,1,.12.047.162.162,0,0,1,.047.12v.58a.146.146,0,0,1-.047.1.162.162,0,0,1-.12.047h-.508a.179.179,0,0,1-.12-.047.138.138,0,0,1-.054-.105Zm.667-1.639q0-.036.08-.062a.524.524,0,0,1,.16-.025h.493A.515.515,0,0,0-25.5-1.53q.054-.033.054-.207v-4.2a.148.148,0,0,1,.044-.109.139.139,0,0,1,.1-.044h.66a.128.128,0,0,1,.1.044.155.155,0,0,1,.04.109v4.213q0,.2-.007.431t-.029.431a.355.355,0,0,1-.047.123.252.252,0,0,1-.12.087,1.443,1.443,0,0,1-.221.036q-.141.015-.308.025t-.344.015h-.642A.6.6,0,0,1-26.38-.6q-.08-.022-.08-.065Zm3.307-3.807a.156.156,0,0,1,.051-.12.175.175,0,0,1,.123-.047h.573a.153.153,0,0,1,.112.047.162.162,0,0,1,.047.12v.566a.153.153,0,0,1-.047.112.162.162,0,0,1-.12.047h-.566A.172.172,0,0,1-23.1-4.54a.153.153,0,0,1-.047-.112ZM-24.057.467q0-.116.138-.116h.145a1.756,1.756,0,0,0,.268-.018A.378.378,0,0,0-23.314.25.406.406,0,0,0-23.2.058a1.222,1.222,0,0,0,.04-.352V-3.55a.128.128,0,0,1,.044-.1.146.146,0,0,1,.1-.04h.631a.133.133,0,0,1,.1.04.133.133,0,0,1,.04.1V-1.5h.638v.93h-.66v.348a2.967,2.967,0,0,1-.033.46A1.16,1.16,0,0,1-22.411.6a.9.9,0,0,1-.424.431,1.682,1.682,0,0,1-.707.127h-.181a1.448,1.448,0,0,1-.21-.018.13.13,0,0,1-.092-.044.13.13,0,0,1-.032-.1ZM-21.9-1.411q0-.036.08-.062a.524.524,0,0,1,.16-.025h.334q.065,0,.138-.007a.474.474,0,0,0,.134-.033.293.293,0,0,0,.1-.073.191.191,0,0,0,.044-.134V-3.55a.133.133,0,0,1,.04-.1.142.142,0,0,1,.1-.04h.631a.133.133,0,0,1,.1.04.133.133,0,0,1,.04.1v1.929a.167.167,0,0,0,.08.062.637.637,0,0,0,.131.04.985.985,0,0,0,.141.018h.294V-.57h-.087a3.392,3.392,0,0,1-.558-.047,1,1,0,0,1-.471-.2,1,1,0,0,1-.225.12,1.763,1.763,0,0,1-.257.076,2.054,2.054,0,0,1-.268.04q-.134.011-.25.011h-.2a.6.6,0,0,1-.16-.022q-.08-.022-.08-.065Zm.994-3.807a.156.156,0,0,1,.051-.12.175.175,0,0,1,.123-.047h.573a.153.153,0,0,1,.112.047.162.162,0,0,1,.047.12v.566a.153.153,0,0,1-.047.112.162.162,0,0,1-.12.047h-.566a.171.171,0,0,1-.127-.047.153.153,0,0,1-.047-.112Zm1.269,3.807q0-.036.08-.062A.524.524,0,0,1-19.4-1.5h.334q.065,0,.138-.007a.474.474,0,0,0,.134-.033.293.293,0,0,0,.105-.073.191.191,0,0,0,.044-.134V-3.55a.133.133,0,0,1,.04-.1.142.142,0,0,1,.1-.04h.631a.133.133,0,0,1,.1.04.133.133,0,0,1,.04.1v1.929a.167.167,0,0,0,.08.062.637.637,0,0,0,.131.04.985.985,0,0,0,.141.018h.294V-.57h-.087a3.392,3.392,0,0,1-.558-.047,1,1,0,0,1-.471-.2,1,1,0,0,1-.225.12,1.763,1.763,0,0,1-.257.076,2.054,2.054,0,0,1-.268.04q-.134.011-.25.011h-.2a.6.6,0,0,1-.16-.022q-.08-.022-.08-.065Zm.341-3.807a.156.156,0,0,1,.051-.12.175.175,0,0,1,.123-.047h.5a.188.188,0,0,1,.127.047.151.151,0,0,1,.054.12v.566a.141.141,0,0,1-.058.112.192.192,0,0,1-.123.047h-.5a.175.175,0,0,1-.123-.047.148.148,0,0,1-.051-.112Zm1.342,0a.151.151,0,0,1,.054-.12.179.179,0,0,1,.12-.047h.508a.162.162,0,0,1,.12.047.162.162,0,0,1,.047.12v.566a.153.153,0,0,1-.047.112.162.162,0,0,1-.12.047h-.508a.179.179,0,0,1-.12-.047.144.144,0,0,1-.054-.112Zm1.03,5.446a.156.156,0,0,1,.051-.12.166.166,0,0,1,.116-.047h.558a.188.188,0,0,1,.127.047.151.151,0,0,1,.054.12v.58a.138.138,0,0,1-.054.1A.188.188,0,0,1-16.2.961h-.558A.166.166,0,0,1-16.87.913a.141.141,0,0,1-.051-.105Zm-.45-1.639q0-.036.08-.062a.524.524,0,0,1,.16-.025h.457a.542.542,0,0,0,.232-.033q.058-.033.058-.207V-2.6q0-.45-.015-.972a.133.133,0,0,1,.04-.1.142.142,0,0,1,.1-.04h.609a.15.15,0,0,1,.116.04.174.174,0,0,1,.044.1q.007.232.011.41t0,.337v1.454A4.544,4.544,0,0,1-15.5-.86a.355.355,0,0,1-.047.123.252.252,0,0,1-.12.087,1.431,1.431,0,0,1-.214.036q-.134.015-.3.025t-.337.015h-.619A.6.6,0,0,1-17.3-.6q-.08-.022-.08-.065ZM-12.82-.6a1.078,1.078,0,0,1,.228-.754.858.858,0,0,1,.627-.261A.942.942,0,0,1-12-1.828a2.337,2.337,0,0,1-.015-.25v-.4a1.549,1.549,0,0,1,.446-1.2,1.684,1.684,0,0,1,1.186-.41,1.642,1.642,0,0,1,1.171.4,1.566,1.566,0,0,1,.424,1.2v.457a2.425,2.425,0,0,1-.022.341.2.2,0,0,0,.073.094.435.435,0,0,0,.116.058.836.836,0,0,0,.134.033.782.782,0,0,0,.12.011H-8.2V-.57h-.109A2.645,2.645,0,0,1-8.8-.62a1.114,1.114,0,0,1-.46-.2,1.566,1.566,0,0,1-1.146.363,2.383,2.383,0,0,1-.645-.083,1.256,1.256,0,0,1-.508-.272.447.447,0,0,0-.268.062.306.306,0,0,0-.08.25V1.171a.133.133,0,0,1-.04.1.142.142,0,0,1-.1.04h-.624a.133.133,0,0,1-.1-.04.133.133,0,0,1-.04-.1Zm1.711-1.527a1,1,0,0,0,.152.614.654.654,0,0,0,.544.2,1.221,1.221,0,0,0,.315-.036.485.485,0,0,0,.221-.123A.51.51,0,0,0-9.75-1.7a1.416,1.416,0,0,0,.04-.368V-2.4a1.025,1.025,0,0,0-.16-.636.635.635,0,0,0-.529-.2.666.666,0,0,0-.544.2.992.992,0,0,0-.167.636Zm4.286-.221a.991.991,0,0,0,.189.653.724.724,0,0,0,.587.225h.286a2.371,2.371,0,0,0,.272-.018V-3.3a4.794,4.794,0,0,0-.479-.022.747.747,0,0,0-.636.2.747.747,0,0,0-.22.631Zm-1.668.935q0-.036.08-.062a.524.524,0,0,1,.16-.025h.8a1.148,1.148,0,0,1-.29-.877v-.138A1.757,1.757,0,0,1-7.6-3.22a1.364,1.364,0,0,1,.377-.511,1.659,1.659,0,0,1,.587-.308,2.614,2.614,0,0,1,.765-.1q.152,0,.319.007t.326.025q.16.018.3.04t.225.044a.2.2,0,0,1,.1.054.144.144,0,0,1,.025.091v1.929q0,.261-.007.6t-.029.616a.125.125,0,0,1-.054.1.279.279,0,0,1-.12.036q-.3.015-.591.022t-.577.007h-2.3a.6.6,0,0,1-.16-.022q-.08-.022-.08-.065Zm1.32-4.162a.156.156,0,0,1,.051-.12A.175.175,0,0,1-7-5.741h.5a.188.188,0,0,1,.127.047.151.151,0,0,1,.054.12v.566A.141.141,0,0,1-6.37-4.9a.192.192,0,0,1-.123.047h-.5A.175.175,0,0,1-7.117-4.9a.148.148,0,0,1-.051-.112Zm1.342,0a.151.151,0,0,1,.054-.12.179.179,0,0,1,.12-.047h.508a.162.162,0,0,1,.12.047.162.162,0,0,1,.047.12v.566a.153.153,0,0,1-.047.112.162.162,0,0,1-.12.047h-.508a.179.179,0,0,1-.12-.047.144.144,0,0,1-.054-.112Z" transform="translate(90.152 6.09)"/>
      </g>
    </g>
  </g>
</svg>
