<svg xmlns="http://www.w3.org/2000/svg" width="162" height="50" viewBox="0 0 162 50">
  <g id="app-store" transform="translate(-400 -1844)">
    <g id="Rectangle_13838" data-name="Rectangle 13838" transform="translate(400 1844)" stroke="#000" stroke-width="1">
      <rect width="162" height="50" rx="12" stroke="none"/>
      <rect x="0.5" y="0.5" width="161" height="49" rx="11.5" fill="none"/>
    </g>
    <g id="Group_117663" data-name="Group 117663" transform="translate(7.309 67.349)">
      <path id="Path_139307" data-name="Path 139307" d="M745.124,220.2a6.2,6.2,0,0,1,2.955-5.2,6.355,6.355,0,0,0-5-2.7c-2.1-.222-4.147,1.259-5.22,1.259-1.094,0-2.745-1.238-4.525-1.2a6.664,6.664,0,0,0-5.608,3.419c-2.425,4.2-.616,10.366,1.707,13.758,1.162,1.663,2.52,3.517,4.3,3.452,1.739-.071,2.389-1.107,4.487-1.107,2.079,0,2.69,1.107,4.5,1.066,1.866-.029,3.042-1.669,4.163-3.346a13.723,13.723,0,0,0,1.9-3.876,6,6,0,0,1-3.66-5.514ZM741.7,210.06a6.1,6.1,0,0,0,1.4-4.375,6.219,6.219,0,0,0-4.022,2.08,5.809,5.809,0,0,0-1.434,4.213,5.138,5.138,0,0,0,4.056-1.918Z" transform="translate(-309.879 1581.966)" fill="#fff"/>
      <g id="Group_117663-2" data-name="Group 117663" transform="translate(450.41 1784.075)">
        <path id="Path_3150" data-name="Path 3150" d="M1022.35,236.859h-2.431l-1.331-4.182h-4.628l-1.268,4.182h-2.366l4.586-14.238h2.832Zm-4.163-5.937-1.2-3.718q-.191-.57-.718-2.682h-.043q-.212.908-.677,2.682l-1.184,3.718Zm15.934.677a5.813,5.813,0,0,1-1.423,4.14,4.175,4.175,0,0,1-3.166,1.353,3.17,3.17,0,0,1-2.932-1.456v5.387h-2.282V229.967q0-1.645-.085-3.375h2.007l.127,1.627h.043a4.06,4.06,0,0,1,6.5-.4,5.674,5.674,0,0,1,1.214,3.783Zm-2.325.084a4.228,4.228,0,0,0-.677-2.472,2.337,2.337,0,0,0-1.986-1.014,2.373,2.373,0,0,0-1.531.56,2.6,2.6,0,0,0-.9,1.469,2.987,2.987,0,0,0-.106.694v1.713a2.746,2.746,0,0,0,.687,1.892,2.281,2.281,0,0,0,1.785.771,2.339,2.339,0,0,0,2.007-.993,4.372,4.372,0,0,0,.725-2.62Zm14.137-.084a5.812,5.812,0,0,1-1.423,4.14,4.177,4.177,0,0,1-3.167,1.353,3.17,3.17,0,0,1-2.932-1.456v5.387h-2.282V229.967q0-1.645-.085-3.375h2.007l.127,1.627h.043a4.061,4.061,0,0,1,6.5-.4,5.681,5.681,0,0,1,1.214,3.783Zm-2.326.084a4.232,4.232,0,0,0-.678-2.472,2.334,2.334,0,0,0-1.984-1.014,2.384,2.384,0,0,0-1.534.56,2.594,2.594,0,0,0-.9,1.469,3.055,3.055,0,0,0-.107.694v1.713a2.754,2.754,0,0,0,.686,1.892,2.285,2.285,0,0,0,1.787.771,2.335,2.335,0,0,0,2.007-.993,4.368,4.368,0,0,0,.719-2.62Zm15.532,1.182a3.8,3.8,0,0,1-1.266,2.958,5.614,5.614,0,0,1-3.88,1.246,6.774,6.774,0,0,1-3.688-.887l.528-1.9a6.349,6.349,0,0,0,3.3.888,3.109,3.109,0,0,0,2.007-.581,1.9,1.9,0,0,0,.72-1.551,1.989,1.989,0,0,0-.593-1.458,5.491,5.491,0,0,0-1.965-1.1q-3.741-1.4-3.741-4.079a3.6,3.6,0,0,1,1.321-2.873,5.223,5.223,0,0,1,3.5-1.12,6.911,6.911,0,0,1,3.233.677l-.573,1.859a5.657,5.657,0,0,0-2.737-.655,2.784,2.784,0,0,0-1.888.592,1.694,1.694,0,0,0-.572,1.29,1.742,1.742,0,0,0,.656,1.394,7.391,7.391,0,0,0,2.07,1.1,7.017,7.017,0,0,1,2.7,1.731,3.607,3.607,0,0,1,.87,2.469Zm7.563-4.561h-2.515v4.985q0,1.9,1.331,1.9a4.01,4.01,0,0,0,1.014-.106l.063,1.732a5.171,5.171,0,0,1-1.774.252,2.736,2.736,0,0,1-2.114-.825,4.045,4.045,0,0,1-.761-2.768V228.3h-1.5v-1.712h1.5v-1.88l2.241-.676v2.556h2.515Zm11.325,3.337a5.632,5.632,0,0,1-1.353,3.887,4.824,4.824,0,0,1-3.761,1.563,4.6,4.6,0,0,1-3.6-1.5,5.459,5.459,0,0,1-1.342-3.781,5.585,5.585,0,0,1,1.384-3.907,4.8,4.8,0,0,1,3.731-1.522,4.694,4.694,0,0,1,3.634,1.5,5.391,5.391,0,0,1,1.311,3.758Zm-2.365.052a4.594,4.594,0,0,0-.611-2.422,2.259,2.259,0,0,0-2.051-1.223,2.291,2.291,0,0,0-2.092,1.223,4.67,4.67,0,0,0-.612,2.465,4.582,4.582,0,0,0,.612,2.424,2.34,2.34,0,0,0,4.124-.021,4.612,4.612,0,0,0,.63-2.446Zm9.785-3.1a3.978,3.978,0,0,0-.719-.063,2.154,2.154,0,0,0-1.86.909,3.426,3.426,0,0,0-.57,2.028v5.387h-2.282V229.82q0-1.617-.066-3.232h1.988l.083,1.964h.063a3.523,3.523,0,0,1,1.141-1.627,2.759,2.759,0,0,1,1.649-.55,3.669,3.669,0,0,1,.57.042Zm10.2,2.642a5.358,5.358,0,0,1-.083,1.035h-6.845a2.977,2.977,0,0,0,.993,2.326,3.4,3.4,0,0,0,2.239.717,7.578,7.578,0,0,0,2.77-.485l.357,1.582a8.564,8.564,0,0,1-3.443.634,4.992,4.992,0,0,1-3.752-1.4,5.188,5.188,0,0,1-1.363-3.77,5.878,5.878,0,0,1,1.269-3.864,4.373,4.373,0,0,1,3.591-1.647,3.827,3.827,0,0,1,3.362,1.647,5.539,5.539,0,0,1,.905,3.229Zm-2.176-.592a3.09,3.09,0,0,0-.443-1.754,1.993,1.993,0,0,0-1.817-.952,2.164,2.164,0,0,0-1.816.929,3.412,3.412,0,0,0-.675,1.774Z" transform="translate(-1010.325 -209.826)" fill="#fff"/>
      </g>
    </g>
  </g>
</svg>
