<svg xmlns="http://www.w3.org/2000/svg" width="162" height="50" viewBox="0 0 162 50">
  <g id="google-play" transform="translate(-400 -1844)">
    <g id="Rectangle_13838" data-name="Rectangle 13838" transform="translate(400 1844)" stroke="#000" stroke-width="1">
      <rect width="162" height="50" rx="12" stroke="none"/>
      <rect x="0.5" y="0.5" width="161" height="49" rx="11.5" fill="none"/>
    </g>
    <g id="Group_117666" data-name="Group 117666" transform="translate(-1.761 -2.911)">
      <g id="Group_117666-2" data-name="Group 117666" transform="translate(455.053 1865.911)">
        <path id="Path_3292" data-name="Path 3292" d="M1108.21,274.323a4.5,4.5,0,0,0-4.6,4.6,4.565,4.565,0,0,0,4.6,4.6,4.5,4.5,0,0,0,4.6-4.6,4.437,4.437,0,0,0-4.6-4.6Zm0,7.273a2.79,2.79,0,0,1,0-5.562,2.591,2.591,0,0,1,2.567,2.781,2.655,2.655,0,0,1-2.567,2.785Zm-9.948-7.273a4.5,4.5,0,0,0-4.6,4.6,4.565,4.565,0,0,0,4.6,4.6,4.5,4.5,0,0,0,4.6-4.6,4.438,4.438,0,0,0-4.592-4.6Zm0,7.273a2.79,2.79,0,0,1,0-5.562,2.591,2.591,0,0,1,2.567,2.781,2.655,2.655,0,0,1-2.559,2.785Zm-11.873-5.883v1.925h4.6a4.045,4.045,0,0,1-1.07,2.46,4.735,4.735,0,0,1-3.53,1.391,4.98,4.98,0,0,1-5.027-5.134,5.045,5.045,0,0,1,5.027-5.134,5.3,5.3,0,0,1,3.53,1.39l1.391-1.39a6.854,6.854,0,0,0-4.813-1.925,7.06,7.06,0,1,0,0,14.12,6.155,6.155,0,0,0,4.92-2.033,6.438,6.438,0,0,0,1.712-4.492,4.012,4.012,0,0,0-.107-1.177Zm48.561,1.5a4.156,4.156,0,0,0-3.851-2.888,4.308,4.308,0,0,0-4.278,4.6,4.476,4.476,0,0,0,4.492,4.6,4.387,4.387,0,0,0,3.744-2.032l-1.5-1.07a2.607,2.607,0,0,1-2.246,1.284,2.32,2.32,0,0,1-2.246-1.39l6.1-2.567-.214-.535Zm-6.2,1.5a2.6,2.6,0,0,1,2.353-2.674,1.892,1.892,0,0,1,1.712.963l-4.065,1.711Zm-5.027,4.385h2.032v-13.37h-2.032Zm-3.209-7.808a3.521,3.521,0,0,0-2.46-1.07,4.6,4.6,0,0,0-4.386,4.6,4.429,4.429,0,0,0,4.386,4.492,3.071,3.071,0,0,0,2.353-1.07h.107v.642a2.432,2.432,0,0,1-4.706,1.07l-1.711.749a4.413,4.413,0,0,0,4.065,2.674c2.353,0,4.279-1.39,4.279-4.706v-8.129h-1.925v.749Zm-2.353,6.311a2.8,2.8,0,1,1,2.474-2.781,2.79,2.79,0,0,1-2.474,2.781Zm26.1-11.872h-4.813V283.1h2.032v-5.027h2.781a4.177,4.177,0,1,0,0-8.343Zm.107,6.418h-2.888v-4.6h2.888a2.35,2.35,0,0,1,2.353,2.246,2.448,2.448,0,0,1-2.353,2.353Zm12.3-1.925a3.6,3.6,0,0,0-3.53,2.032l1.818.749a1.889,1.889,0,0,1,1.818-.963,2.01,2.01,0,0,1,2.139,1.711v.107a4.244,4.244,0,0,0-2.032-.535c-1.925,0-3.851,1.07-3.851,2.995a3.134,3.134,0,0,0,3.316,3,3.01,3.01,0,0,0,2.567-1.284h.107v1.07h1.925V277.96a4.048,4.048,0,0,0-4.279-3.744Zm-.214,7.38c-.642,0-1.6-.321-1.6-1.177,0-1.07,1.177-1.39,2.139-1.39a4.136,4.136,0,0,1,1.818.428,2.491,2.491,0,0,1-2.361,2.137Zm11.231-7.059-2.246,5.776h-.107l-2.353-5.776h-2.139l3.53,8.129-2.032,4.492h2.032l5.455-12.621Zm-17.97,8.557h2.032V269.73h-2.032Z" transform="translate(-1079.333 -269.296)" fill="#fff"/>
      </g>
      <g id="Group_117667" data-name="Group 117667" transform="translate(-2709.026 276.438)">
        <path id="Path_3340" data-name="Path 3340" d="M3129.51,1603.671v-9.615a2.2,2.2,0,0,1,.115-.843.531.531,0,0,1,.866-.235,3.669,3.669,0,0,1,.332.311l10.217,9.852c.522.5.527.7.018,1.206q-5.078,5.065-10.159,10.127c-.563.562-.979.468-1.261-.288a2.632,2.632,0,0,1-.128-.946Q3129.51,1608.455,3129.51,1603.671Z" transform="translate(0 -7.741)" fill="#fff"/>
        <path id="Path_3341" data-name="Path 3341" d="M3165.951,1591.78a.594.594,0,0,1-.212.446l-2.582,2.583a.575.575,0,0,1-.921.014q-4.953-4.8-9.911-9.593a.552.552,0,0,1-.117-.807.542.542,0,0,1,.771-.087q6.3,3.451,12.6,6.9A.58.58,0,0,1,3165.951,1591.78Z" transform="translate(-20.268)" fill="#fff"/>
        <path id="Path_3342" data-name="Path 3342" d="M3175.341,1712.605c0,.376-.282.482-.535.619l-10.379,5.683c-.311.17-.624.336-.932.511s-.587.216-.818-.077-.105-.563.14-.8c.388-.376.765-.764,1.148-1.147l7.531-7.53c.554-.553.686-.554,1.244-.015l2.3,2.22C3175.191,1712.22,3175.369,1712.361,3175.341,1712.605Z" transform="translate(-29.767 -112.522)" fill="#fff"/>
        <path id="Path_3343" data-name="Path 3343" d="M3274.268,1667.573a1.9,1.9,0,0,1-.984,1.585c-1.05.609-2.124,1.174-3.187,1.76a.63.63,0,0,1-.824-.121q-1.486-1.452-2.986-2.893a.563.563,0,0,1,.007-.917q1.492-1.484,2.974-2.978a.641.641,0,0,1,.862-.13c1.033.574,2.074,1.127,3.1,1.711a2.087,2.087,0,0,1,1.039,1.983Z" transform="translate(-122.864 -71.474)" fill="#fff"/>
      </g>
    </g>
  </g>
</svg>
