<svg xmlns="http://www.w3.org/2000/svg" width="158" height="50" viewBox="0 0 158 50">
  <g id="google-play" transform="translate(0 0.336)">
    <g id="Rectangle_13838" data-name="Rectangle 13838" transform="translate(0 -0.336)" fill="rgba(255,255,255,0)" stroke="#000" stroke-width="1">
      <rect width="158" height="50" rx="10" stroke="none"/>
      <rect x="0.5" y="0.5" width="157" height="49" rx="9.5" fill="none"/>
    </g>
    <g id="Group_117666" data-name="Group 117666" transform="translate(17.604 10.762)">
      <g id="Group_117666-2" data-name="Group 117666" transform="translate(30.965 11.618)">
        <path id="Path_3292" data-name="Path 3292" d="M1108.21,274.323a4.5,4.5,0,0,0-4.6,4.6,4.565,4.565,0,0,0,4.6,4.6,4.5,4.5,0,0,0,4.6-4.6,4.437,4.437,0,0,0-4.6-4.6Zm0,7.273a2.79,2.79,0,0,1,0-5.562,2.591,2.591,0,0,1,2.567,2.781,2.655,2.655,0,0,1-2.567,2.785Zm-9.948-7.273a4.5,4.5,0,0,0-4.6,4.6,4.565,4.565,0,0,0,4.6,4.6,4.5,4.5,0,0,0,4.6-4.6,4.438,4.438,0,0,0-4.592-4.6Zm0,7.273a2.79,2.79,0,0,1,0-5.562,2.591,2.591,0,0,1,2.567,2.781,2.655,2.655,0,0,1-2.559,2.785Zm-11.873-5.883v1.925h4.6a4.045,4.045,0,0,1-1.07,2.46,4.735,4.735,0,0,1-3.53,1.391,4.98,4.98,0,0,1-5.027-5.134,5.045,5.045,0,0,1,5.027-5.134,5.3,5.3,0,0,1,3.53,1.39l1.391-1.39a6.854,6.854,0,0,0-4.813-1.925,7.06,7.06,0,1,0,0,14.12,6.155,6.155,0,0,0,4.92-2.033,6.438,6.438,0,0,0,1.712-4.492,4.012,4.012,0,0,0-.107-1.177Zm48.561,1.5a4.156,4.156,0,0,0-3.851-2.888,4.308,4.308,0,0,0-4.278,4.6,4.476,4.476,0,0,0,4.492,4.6,4.387,4.387,0,0,0,3.744-2.032l-1.5-1.07a2.607,2.607,0,0,1-2.246,1.284,2.32,2.32,0,0,1-2.246-1.39l6.1-2.567-.214-.535Zm-6.2,1.5a2.6,2.6,0,0,1,2.353-2.674,1.892,1.892,0,0,1,1.712.963l-4.065,1.711Zm-5.027,4.385h2.032v-13.37h-2.032Zm-3.209-7.808a3.521,3.521,0,0,0-2.46-1.07,4.6,4.6,0,0,0-4.386,4.6,4.429,4.429,0,0,0,4.386,4.492,3.071,3.071,0,0,0,2.353-1.07h.107v.642a2.432,2.432,0,0,1-4.706,1.07l-1.711.749a4.413,4.413,0,0,0,4.065,2.674c2.353,0,4.279-1.39,4.279-4.706v-8.129h-1.925v.749Zm-2.353,6.311a2.8,2.8,0,1,1,2.474-2.781,2.79,2.79,0,0,1-2.474,2.781Zm26.1-11.872h-4.813V283.1h2.032v-5.027h2.781a4.177,4.177,0,1,0,0-8.343Zm.107,6.418h-2.888v-4.6h2.888a2.35,2.35,0,0,1,2.353,2.246,2.448,2.448,0,0,1-2.353,2.353Zm12.3-1.925a3.6,3.6,0,0,0-3.53,2.032l1.818.749a1.889,1.889,0,0,1,1.818-.963,2.01,2.01,0,0,1,2.139,1.711v.107a4.244,4.244,0,0,0-2.032-.535c-1.925,0-3.851,1.07-3.851,2.995a3.134,3.134,0,0,0,3.316,3,3.01,3.01,0,0,0,2.567-1.284h.107v1.07h1.925V277.96a4.048,4.048,0,0,0-4.279-3.744Zm-.214,7.38c-.642,0-1.6-.321-1.6-1.177,0-1.07,1.177-1.39,2.139-1.39a4.136,4.136,0,0,1,1.818.428,2.491,2.491,0,0,1-2.361,2.137Zm11.231-7.059-2.246,5.776h-.107l-2.353-5.776h-2.139l3.53,8.129-2.032,4.492h2.032l5.455-12.621Zm-17.97,8.557h2.032V269.73h-2.032Z" transform="translate(-1079.437 -269.296)"/>
      </g>
      <path id="Path_139308" data-name="Path 139308" d="M-44.985-4.848a.156.156,0,0,1,.051-.12.175.175,0,0,1,.123-.047h.573a.153.153,0,0,1,.112.047.162.162,0,0,1,.047.12v.566a.153.153,0,0,1-.047.112.162.162,0,0,1-.12.047h-.566a.171.171,0,0,1-.127-.047.153.153,0,0,1-.047-.112Zm-.689,2.117q.138,0,.123.138-.014.16-.022.341t-.007.283a4.48,4.48,0,0,0,.054.732,1.311,1.311,0,0,0,.218.555,1.034,1.034,0,0,0,.464.352,2.105,2.105,0,0,0,.787.123q.138,0,.257-.007t.286-.029q.007-.355.007-.624V-3.55a.128.128,0,0,1,.044-.1.146.146,0,0,1,.1-.04h.631a.13.13,0,0,1,.1.04.14.14,0,0,1,.036.1V-1.5h.645v.93H-42.6v.511q0,.272-.014.475,0,.123-.152.16A4,4,0,0,1-43.4.685q-.33.029-.671.029A2.583,2.583,0,0,1-45.88.17a2.26,2.26,0,0,1-.584-1.726q0-.073.007-.2t.018-.279q.011-.149.029-.294t.04-.254a.236.236,0,0,1,.044-.112.143.143,0,0,1,.109-.033Zm3.437,1.32q0-.036.08-.062A.524.524,0,0,1-42-1.5h.218a1.063,1.063,0,0,0,.116-.007.569.569,0,0,0,.127-.029A.344.344,0,0,0-41.43-1.6a.186.186,0,0,0,.062-.1.581.581,0,0,0,.022-.167v-.609a1.556,1.556,0,0,1,.442-1.2,1.681,1.681,0,0,1,1.189-.41,1.631,1.631,0,0,1,1.164.4,1.566,1.566,0,0,1,.424,1.2v.428a1.578,1.578,0,0,1-.417,1.2,1.667,1.667,0,0,1-1.186.392,2.8,2.8,0,0,1-.714-.091.97.97,0,0,1-.519-.3.737.737,0,0,1-.381.228,2.143,2.143,0,0,1-.54.062H-42a.6.6,0,0,1-.16-.022q-.08-.022-.08-.065Zm1.806-.7a2.237,2.237,0,0,0,.022.318.514.514,0,0,0,.232.365.914.914,0,0,0,.45.1.675.675,0,0,0,.529-.181.97.97,0,0,0,.16-.636v-.267a1.008,1.008,0,0,0-.16-.632.641.641,0,0,0-.529-.2.657.657,0,0,0-.537.2.978.978,0,0,0-.167.629Zm4.917-.2a1.754,1.754,0,0,1,.5-1.331,2.026,2.026,0,0,1,1.454-.475q.283,0,.577.029a2.5,2.5,0,0,1,.46.08.194.194,0,0,1,.1.051.144.144,0,0,1,.022.087v1.987a.356.356,0,0,0,.109.312.644.644,0,0,0,.348.073h.2V-.57h-.334A1.7,1.7,0,0,1-32.7-.664a.7.7,0,0,1-.363-.312.931.931,0,0,1-.388.221,1.652,1.652,0,0,1-.5.076h-.094a1.92,1.92,0,0,1-.573-.083,1.227,1.227,0,0,1-.468-.265A1.264,1.264,0,0,1-35.4-1.49a1.773,1.773,0,0,1-.116-.674Zm.914-.029a.863.863,0,0,0,.16.587.638.638,0,0,0,.493.174h.109a.772.772,0,0,0,.384-.08.265.265,0,0,0,.138-.247V-3.26a1.459,1.459,0,0,0-.163-.011h-.185a1.042,1.042,0,0,0-.689.207.772.772,0,0,0-.247.627Zm2.56.928q0-.036.08-.062A.524.524,0,0,1-31.8-1.5h.334q.065,0,.138-.007a.475.475,0,0,0,.134-.033.293.293,0,0,0,.1-.073.191.191,0,0,0,.044-.134v-1.8a.133.133,0,0,1,.04-.1.142.142,0,0,1,.1-.04h.631a.133.133,0,0,1,.1.04.133.133,0,0,1,.04.1v1.929a.167.167,0,0,0,.08.062.637.637,0,0,0,.131.04.985.985,0,0,0,.141.018h.294V-.57h-.087a3.392,3.392,0,0,1-.558-.047,1,1,0,0,1-.471-.2,1,1,0,0,1-.225.12,1.763,1.763,0,0,1-.257.076,2.054,2.054,0,0,1-.268.04q-.134.011-.25.011h-.2a.6.6,0,0,1-.16-.022q-.08-.022-.08-.065Zm.254,1.639a.156.156,0,0,1,.051-.12A.175.175,0,0,1-31.612.06h.5a.188.188,0,0,1,.127.047.151.151,0,0,1,.054.12v.58a.135.135,0,0,1-.058.1.192.192,0,0,1-.123.047h-.5a.175.175,0,0,1-.123-.047.141.141,0,0,1-.051-.105Zm1.342,0a.151.151,0,0,1,.054-.12A.179.179,0,0,1-30.27.06h.508a.162.162,0,0,1,.12.047.162.162,0,0,1,.047.12v.58a.146.146,0,0,1-.047.105.162.162,0,0,1-.12.047h-.508a.179.179,0,0,1-.12-.047.138.138,0,0,1-.054-.105Zm.667-1.639q0-.036.08-.062a.524.524,0,0,1,.16-.025h.363q.065,0,.138-.007a.475.475,0,0,0,.134-.033.26.26,0,0,0,.1-.073.2.2,0,0,0,.04-.134v-4.19a.148.148,0,0,1,.044-.109.139.139,0,0,1,.1-.044h.66a.125.125,0,0,1,.1.044.164.164,0,0,1,.036.109v4.315a.3.3,0,0,0,.21.1,1.854,1.854,0,0,0,.254.022h.181V-.57h-.087a3.392,3.392,0,0,1-.558-.047.948.948,0,0,1-.464-.2,1,1,0,0,1-.225.12,1.763,1.763,0,0,1-.257.076,2.054,2.054,0,0,1-.268.04q-.134.011-.25.011h-.254a.6.6,0,0,1-.16-.022q-.08-.022-.08-.065Zm2.313,0q0-.036.08-.062a.524.524,0,0,1,.16-.025h.783a1.1,1.1,0,0,1-.2-.4,2.03,2.03,0,0,1-.076-.577v-.08a1.6,1.6,0,0,1,.145-.714,1.332,1.332,0,0,1,.4-.482,1.653,1.653,0,0,1,.58-.276,2.734,2.734,0,0,1,.7-.087q.261,0,.453.018t.431.062a.387.387,0,0,1,.123.04.1.1,0,0,1,.044.1v.529q0,.145-.152.131L-24.2-3.25l-.174-.011-.174-.007h-.207a1.326,1.326,0,0,0-.772.192.739.739,0,0,0-.272.649v.08a1.138,1.138,0,0,0,.131.547.624.624,0,0,0,.3.308h1.516a.154.154,0,0,1,.1.036.117.117,0,0,1,.044.094v.674a.107.107,0,0,1-.044.091.165.165,0,0,1-.1.033h-3.365a.6.6,0,0,1-.16-.022q-.08-.022-.08-.065Zm7.056-1.32q.123,0,.123.145a2.466,2.466,0,0,1-.022.315q-.007.156-.007.265a4.866,4.866,0,0,0,.051.736,1.365,1.365,0,0,0,.21.566,1.045,1.045,0,0,0,.45.366,1.9,1.9,0,0,0,.769.131q.123,0,.272-.007A1.511,1.511,0,0,0-18.29-.25q.007-.355.011-.616t0-.566v-4.5a.148.148,0,0,1,.044-.109.139.139,0,0,1,.1-.044h.653a.136.136,0,0,1,.1.044.155.155,0,0,1,.04.109V-1.5h.638v.93h-.638l-.015.511q-.008.272-.022.475-.007.131-.16.16a5.241,5.241,0,0,1-.627.1,6.475,6.475,0,0,1-.678.036A2.488,2.488,0,0,1-20.622.156,2.317,2.317,0,0,1-21.2-1.577q0-.08.007-.2t.018-.265q.011-.141.025-.283t.036-.257a.255.255,0,0,1,.044-.109.123.123,0,0,1,.1-.036Zm3.423,1.32q0-.036.08-.062a.524.524,0,0,1,.16-.025h.725V-3.956a.139.139,0,0,1,.044-.1.139.139,0,0,1,.1-.044h.624a.139.139,0,0,1,.1.044.139.139,0,0,1,.044.1v.268a1.7,1.7,0,0,1,.413-.221,3.2,3.2,0,0,1,.446-.131,3.109,3.109,0,0,1,.417-.062q.2-.015.319-.015a3.277,3.277,0,0,1,.845.1,1.635,1.635,0,0,1,.649.33,1.472,1.472,0,0,1,.413.6,2.521,2.521,0,0,1,.145.91v.432a1.213,1.213,0,0,1-.015.141.511.511,0,0,1-.025.1h.58V-.57h-5.823a.6.6,0,0,1-.16-.022q-.08-.022-.08-.065Zm1.878-.08q.167.007.384.011t.5,0h1.675a.14.14,0,0,0,.131-.094,1.087,1.087,0,0,0,.044-.384v-.109a1.593,1.593,0,0,0-.083-.551.836.836,0,0,0-.25-.363,1,1,0,0,0-.428-.2,2.872,2.872,0,0,0-.616-.058q-.116,0-.29.015a3.054,3.054,0,0,0-.366.054,2.581,2.581,0,0,0-.377.109,1.314,1.314,0,0,0-.323.17Zm3.894.08q0-.036.08-.062a.524.524,0,0,1,.16-.025h3.082l-.2-.45-.145-.3a1.721,1.721,0,0,0-.609-.725,1.926,1.926,0,0,0-1.088-.268h-.181a1.591,1.591,0,0,0-.21.011q-.152.015-.152-.116v-.537q0-.1.145-.138a3.927,3.927,0,0,1,.711-.065A3.108,3.108,0,0,1-8.878-4a1.944,1.944,0,0,1,.635.283,2.4,2.4,0,0,1,.548.529,3.994,3.994,0,0,1,.471.823l.094.2.276.674a.646.646,0,0,1,.044.254v.5Q-6.81-.57-7-.57h-3.974a.513.513,0,0,1-.163-.025q-.076-.025-.076-.062Zm5.345-4.532a.146.146,0,0,1,.04-.1.136.136,0,0,1,.105-.044h.653a.136.136,0,0,1,.105.044.146.146,0,0,1,.04.1V-.722a.159.159,0,0,1-.04.1A.131.131,0,0,1-5.07-.57h-.653a.131.131,0,0,1-.105-.047.159.159,0,0,1-.04-.105Z" transform="translate(126.134 6.089)"/>
      <g id="Group_117667" data-name="Group 117667" transform="translate(0 2.535)">
        <path id="Path_3340" data-name="Path 3340" d="M3129.51,1604.41v-10.271a2.359,2.359,0,0,1,.123-.9.565.565,0,0,1,.922-.251,3.9,3.9,0,0,1,.354.332l10.879,10.524c.556.538.561.746.019,1.288q-5.408,5.41-10.818,10.818c-.6.6-1.042.5-1.343-.308a2.817,2.817,0,0,1-.136-1.01Q3129.51,1609.52,3129.51,1604.41Z" transform="translate(-3129.506 -1591.901)"/>
        <path id="Path_3341" data-name="Path 3341" d="M3166.85,1592.27a.633.633,0,0,1-.226.475l-2.749,2.75a.612.612,0,0,1-.981.015q-5.275-5.11-10.554-10.215a.588.588,0,0,1-.125-.859.578.578,0,0,1,.821-.093q6.706,3.675,13.415,7.346a.617.617,0,0,1,.4.581Z" transform="translate(-3149.624 -1584.217)"/>
        <path id="Path_3342" data-name="Path 3342" d="M3176.17,1712.81c0,.4-.3.513-.57.659l-11.052,6.052c-.331.181-.664.358-.992.544s-.625.23-.871-.082-.112-.6.149-.854c.413-.4.815-.814,1.223-1.221l8.019-8.018c.59-.589.73-.59,1.325-.016l2.446,2.364C3176.01,1712.4,3176.2,1712.55,3176.17,1712.81Z" transform="translate(-3158.966 -1695.841)"/>
        <path id="Path_3343" data-name="Path 3343" d="M3274.8,1667.82a2.02,2.02,0,0,1-1.047,1.688c-1.118.648-2.262,1.25-3.394,1.874a.67.67,0,0,1-.878-.129q-1.582-1.546-3.179-3.081a.6.6,0,0,1,.007-.977q1.589-1.58,3.167-3.171a.683.683,0,0,1,.918-.138c1.1.611,2.208,1.2,3.3,1.822a2.223,2.223,0,0,1,1.106,2.112Z" transform="translate(-3251.222 -1655.129)"/>
      </g>
    </g>
  </g>
</svg>
